<svg xmlns="http://www.w3.org/2000/svg" version="1.1" width="100%" viewBox="0 0 1000 500">
    <g transform="translate(500, 250)">
        <g transform="scale(1.5) translate(-430.5, -134.5)">
<path fill="#000" opacity="1.000000" stroke="none"
      d=" M487.179565,116.000031   C487.179626,138.994675 487.187439,161.489319 487.175659,183.983963   C487.171234,192.408386 483.795532,195.897247 475.486053,195.980118   C468.821625,196.046570 462.154114,196.093002 455.491486,195.965485   C448.126129,195.824539 444.495911,192.106644 444.456360,184.761429   C444.398926,174.097610 444.487854,163.432999 444.430023,152.769196   C444.382355,143.981522 441.127289,140.829208 432.284973,140.820099   C423.786987,140.811356 415.289032,140.815018 406.791046,140.819138   C397.171997,140.823807 394.102417,143.950516 394.100342,153.792084   C394.093842,184.784698 394.100739,215.777328 394.096741,246.769943   C394.095581,255.794983 390.857422,259.017090 381.737885,259.047913   C375.239502,259.069885 368.739868,259.125671 362.242828,259.029480   C355.260010,258.926086 351.312836,255.119400 351.306763,248.205643   C351.257599,192.219025 351.256805,136.232315 351.302307,80.245689   C351.307953,73.316742 355.165314,69.453255 362.160034,69.290794   C369.321136,69.124466 376.492218,69.122032 383.653137,69.291756   C390.344788,69.450348 394.024689,73.362679 394.089813,80.023514   C394.135437,84.688629 394.003174,89.357010 394.122803,94.019516   C394.301544,100.987274 398.166290,104.800476 405.066467,104.844650   C414.230591,104.903305 423.395386,104.874359 432.559845,104.855598   C440.863068,104.838600 444.403595,101.389931 444.421814,93.002197   C444.475403,68.341515 444.437775,43.680645 444.442749,19.019850   C444.444702,9.393993 447.677399,6.184138 457.355927,6.175770   C463.521118,6.170439 469.686829,6.126672 475.851410,6.187650   C483.625549,6.264549 487.165192,9.792842 487.170593,17.523178   C487.193298,50.182117 487.179810,82.841080 487.179565,116.000031  z"/>
    <path fill="#000" opacity="1.000000" stroke="none"
          d=" M668.873291,75.557098   C669.152222,85.572639 669.627991,95.215622 669.304077,104.831665   C669.142029,109.640884 665.062988,112.704865 660.072449,113.015060   C657.084778,113.200768 654.077393,113.074783 651.078857,113.079269   C641.731750,113.093239 638.625122,116.236755 638.620361,125.753273   C638.610962,144.745132 638.621704,163.737000 638.617371,182.728851   C638.615051,192.623093 635.326538,195.959091 625.513977,195.990509   C619.183472,196.010773 612.849365,196.115112 606.523254,195.944595   C599.303223,195.749954 595.870544,192.157272 595.859863,185.007431   C595.830811,165.515823 595.860046,146.024155 595.846436,126.532501   C595.839233,116.192535 592.725586,112.850136 582.486084,113.136726   C568.175476,113.537292 563.853516,111.936897 564.776489,95.644104   C565.049316,90.828308 564.808899,85.983932 564.820129,81.152702   C564.839539,72.800423 568.262756,69.278603 576.596497,69.263588   C598.420410,69.224274 620.244446,69.249954 642.068420,69.249947   C647.399475,69.249939 652.730591,69.265144 658.061584,69.246857   C662.736267,69.230827 666.549255,70.731293 668.873291,75.557098  z"/>
    <path fill="#000" opacity="1.000000" stroke="none"
          d=" M549.251343,131.000061   C549.251465,169.796402 549.255127,208.092743 549.249207,246.389069   C549.247742,255.843094 546.107361,259.019745 536.758545,259.044678   C530.431396,259.061554 524.103394,259.105957 517.777039,259.032928   C510.202942,258.945465 506.657532,255.491653 506.654175,248.082474   C506.628876,192.136536 506.631104,136.190582 506.652496,80.244644   C506.655212,73.173065 510.261353,69.431168 517.326782,69.288963   C524.317200,69.148285 531.314819,69.149529 538.305298,69.287743   C545.625427,69.432480 549.223206,73.186142 549.240356,80.548363   C549.279053,97.198845 549.251831,113.849487 549.251343,131.000061  z"/>

    <path fill="#000" opacity="1.000000" stroke="none"
          d=" M598.408447,218.437393   C599.189575,217.742691 599.644470,217.104782 600.231079,216.942490   C611.173157,213.914780 622.259888,214.335129 633.165283,216.633240   C637.202148,217.483932 638.573914,221.782883 638.604492,225.901428   C638.660217,233.400986 638.738037,240.903610 638.586487,248.400513   C638.450073,255.149353 634.654053,258.913422 627.954163,259.025024   C620.622925,259.147217 613.285583,259.167572 605.955444,259.013702   C599.898376,258.886597 596.090454,255.572891 595.811707,249.570496   C595.433472,241.427338 595.515747,233.249435 595.780579,225.098801   C595.850586,222.947723 597.317810,220.842087 598.408447,218.437393  z"/>
    <path fill="#000" opacity="1.000000" stroke="none"
          d=" M487.183228,232.041168   C487.182434,238.024292 487.266418,243.516495 487.157806,249.004868   C487.040253,254.942673 483.506195,258.793121 477.606079,258.967407   C469.793396,259.198212 461.964020,259.196106 454.150940,258.974030   C448.318115,258.808228 444.600494,254.923279 444.479156,249.048431   C444.317719,241.231934 444.339905,233.408020 444.467743,225.590332   C444.567505,219.488083 448.234711,215.519455 454.357635,215.299652   C462.001007,215.025284 469.669281,215.030273 477.312775,215.304749   C483.515717,215.527496 487.009155,219.429825 487.174713,225.559143   C487.228607,227.554245 487.183228,229.552002 487.183228,232.041168  z"/>
    <path fill="#000" opacity="1.000000" stroke="none"
          d=" M509.108032,46.761292   C508.637573,46.198563 508.257050,45.941620 508.251099,45.676315   C507.998108,34.353264 507.263214,23.003069 507.841003,11.720406   C508.036896,7.895552 512.738647,6.199219 516.911011,6.182999   C524.235596,6.154526 531.562683,6.062877 538.884399,6.211601   C545.366394,6.343268 549.139832,10.125575 549.230713,16.491306   C549.340027,24.147392 549.331238,31.807159 549.234741,39.463585   C549.149963,46.190010 545.423157,49.781857 538.591919,49.837677   C531.600647,49.894814 524.594116,50.109364 517.623779,49.722935   C514.832825,49.568211 512.120728,47.992233 509.108032,46.761292  z"/>
</g>
</g>
</svg>
