<svg xmlns="http://www.w3.org/2000/svg" id="Calque_2" data-name="Calque 2" viewBox="0 0 919.62 222.37">
    <defs>
        <style>
            /* Change the hex code below to change the entire logo color */
            .mono-color { fill: #000000; }
        </style>
    </defs>
    <g id="Calque_1-2" data-name="Calque 1">
        <g>
            <path class="mono-color" d="M349.64,202.23c-14.97,0-26.59-4.22-34.86-12.68-8.28-8.45-12.41-20.34-12.41-35.66v-72.11h-25.36v-27.2h3.96c6.69,0,11.93-1.94,15.71-5.81,3.78-3.87,5.68-9.15,5.68-15.85V0h29.85v54.58s32.48,0,32.48,0v27.2h-32.49v70.79c0,4.93.8,9.11,2.38,12.55,1.58,3.43,4.13,6.08,7.66,7.92,3.52,1.85,8.1,2.77,13.73,2.77,1.41,0,2.99-.09,4.75-.26,1.76-.17,3.43-.35,5.02-.53v25.62c-2.47.35-5.2.7-8.19,1.06-3,.35-5.64.53-7.92.53Z"/>
            <path class="mono-color" d="M503.23,97.37c-3.08-8.27-7.53-15.62-13.34-22.05-5.81-6.43-12.94-11.49-21.39-15.19-8.45-3.7-18.14-5.55-29.05-5.55-13.21,0-25.14,3.21-35.79,9.64-10.66,6.43-19.06,15.19-25.22,26.28-6.17,11.09-9.24,23.86-9.24,38.3s3.08,26.81,9.24,38.17c6.16,11.36,14.7,20.34,25.62,26.94,10.92,6.6,23.51,9.91,37.77,9.91,9.86,0,18.89-1.54,27.07-4.62s15.23-7.26,21.13-12.55c5.9-5.28,10.26-11.27,13.07-17.96l-24.3-12.15c-3.7,6.17-8.54,11.18-14.53,15.06-5.99,3.88-13.38,5.81-22.19,5.81-8.28,0-15.72-2.02-22.32-6.08-6.6-4.05-11.71-9.68-15.32-16.9-2.48-4.96-3.88-10.52-4.24-16.64h106.32c.53-2.11.88-4.4,1.06-6.87.17-2.46.26-4.84.26-7.13,0-9.33-1.54-18.13-4.62-26.41ZM404.32,102.65c3.34-7.4,8.1-13.07,14.26-17.04,6.16-3.96,13.12-5.94,20.87-5.94s14.88,1.98,20.87,5.94c5.98,3.96,10.39,9.33,13.21,16.11,1.58,3.8,2.44,7.9,2.64,12.28h-75.19c.68-4.09,1.79-7.89,3.36-11.36Z"/>
            <path class="mono-color" d="M628.96,78.49c-4.84-7.48-11.62-13.34-20.34-17.56-8.72-4.23-18.71-6.34-29.98-6.34-9.16,0-17.74,1.5-25.75,4.49-8.01,3-14.97,7.22-20.87,12.68-5.9,5.46-10.26,11.71-13.07,18.75l25.09,12.41c2.81-6.69,7.17-12.06,13.07-16.11,5.9-4.05,12.72-6.08,20.47-6.08,8.63,0,15.58,2.25,20.87,6.74s7.92,10.17,7.92,17.04v5.45l-45.43,7.49c-11.09,1.76-20.21,4.75-27.34,8.98-7.13,4.23-12.41,9.42-15.85,15.58-3.43,6.17-5.15,13.12-5.15,20.86,0,8.28,2.02,15.5,6.07,21.66,4.05,6.17,9.73,10.92,17.04,14.26,7.31,3.34,15.8,5.02,25.49,5.02,7.92,0,15.23-1.15,21.92-3.43,6.69-2.29,12.59-5.55,17.7-9.77,2.5-2.07,4.79-4.34,6.87-6.79l.23,20.46h28.53l-.23-99.78c0-9.86-2.42-18.53-7.26-26.01ZM601.22,160.89c-3.43,5.9-8.19,10.61-14.26,14.13-6.07,3.52-13.07,5.28-21,5.28-6.52,0-11.84-1.72-15.98-5.15-4.14-3.43-6.21-7.88-6.21-13.34s1.85-10.04,5.55-13.73c3.7-3.7,9.51-6.25,17.43-7.66l39.62-6.68v7.48c0,7.22-1.72,13.78-5.15,19.68Z"/>
            <path class="mono-color" d="M766.17.7v73.39c-4.44-5.12-9.84-9.34-16.24-12.64-8.89-4.58-18.98-6.87-30.24-6.87-13.56,0-25.75,3.26-36.58,9.77-10.83,6.52-19.37,15.41-25.62,26.68-6.25,11.27-9.38,23.95-9.38,38.03s3.12,26.77,9.38,38.03c6.25,11.27,14.79,20.21,25.62,26.81,10.83,6.6,23.02,9.9,36.58,9.9,11.09,0,21.17-2.29,30.24-6.87,7.15-3.61,12.99-8.49,17.56-14.62v21.95s28.52,0,28.52,0V.7s-29.84,0-29.84,0ZM760.49,153.23c-3.79,7.13-8.94,12.72-15.45,16.77-6.52,4.05-13.91,6.08-22.19,6.08s-15.98-2.02-22.58-6.08c-6.6-4.05-11.75-9.64-15.45-16.77-3.7-7.13-5.55-15.19-5.55-24.17s1.85-16.95,5.55-23.9c3.7-6.95,8.89-12.5,15.58-16.64,6.69-4.14,14.17-6.21,22.45-6.21s15.67,2.03,22.19,6.07c6.51,4.05,11.66,9.64,15.45,16.77,3.78,7.13,5.68,15.1,5.68,23.9s-1.89,17.04-5.68,24.17Z"/>
            <path class="mono-color" d="M866.53,203.81c-14.79,0-27.65-3.61-38.56-10.83-10.92-7.22-18.58-16.9-22.98-29.05l22.98-10.83c3.87,8.1,9.2,14.53,15.98,19.28,6.78,4.76,14.3,7.13,22.58,7.13,7.04,0,12.76-1.59,17.17-4.76,4.4-3.17,6.6-7.48,6.6-12.94,0-3.34-.97-6.12-2.91-8.32-1.94-2.2-4.36-4-7.26-5.42-2.91-1.41-5.86-2.55-8.85-3.43l-22.45-6.34c-12.5-3.52-21.79-8.8-27.87-15.85-6.07-7.04-9.11-15.32-9.11-24.83,0-8.63,2.2-16.2,6.6-22.71,4.4-6.51,10.47-11.53,18.22-15.05,7.75-3.52,16.55-5.28,26.41-5.28,13.03,0,24.65,3.21,34.86,9.64,10.21,6.43,17.43,15.37,21.66,26.81l-23.24,11.09c-2.82-7.04-7.22-12.59-13.21-16.64-5.99-4.05-12.77-6.08-20.34-6.08-6.52,0-11.71,1.54-15.58,4.62-3.88,3.08-5.81,7.09-5.81,12.02,0,3.35.88,6.12,2.64,8.32,1.76,2.2,4.05,3.96,6.87,5.28,2.81,1.32,5.72,2.42,8.72,3.3l23.24,6.87c11.79,3.35,20.87,8.58,27.2,15.71,6.34,7.13,9.51,15.63,9.51,25.49,0,8.45-2.25,15.89-6.74,22.32-4.49,6.43-10.7,11.45-18.62,15.05-7.92,3.61-17.17,5.42-27.73,5.42Z"/>
            <g>
                <path class="mono-color" d="M242.49,52.42c-.12-19.04-10.06-36.02-26.6-45.44C207.71,2.32,198.77,0,189.83,0s-18.29,2.43-26.59,7.3l-65.78,38.51c-1.1.65-2.17,1.33-3.22,2.04l20.02,11.56,59.2-34.66c10.12-5.92,22.24-6,32.43-.2,10.19,5.8,16.32,16.26,16.39,27.99l.46,76.23c.07,11.73-5.93,22.26-16.05,28.19-5.12,3-10.75,4.5-16.38,4.5s-11.02-1.43-16.05-4.3l-7.36-4.19-17.72-10.09-41.17-23.44c-10.19-5.8-16.32-16.27-16.39-27.99,0-1.41.07-2.79.24-4.16l-18.44-10.65c-1.35,4.76-2.05,9.77-2.01,14.93.11,19.04,10.06,36.02,26.6,45.44l38.03,21.65,19,10.81,9.22,5.25c16.54,9.42,36.22,9.3,52.65-.32,16.43-9.62,26.17-26.72,26.05-45.76l-.46-76.23Z"/>
                <path class="mono-color" d="M93.78,79.49l-12.14-6.91,12.11,6.99s.02-.05.03-.08Z"/>
                <path class="mono-color" d="M169.44,146.07c1.42-4.86,2.15-9.99,2.11-15.27-.11-19.04-10.06-36.02-26.6-45.44l-38.03-21.65-19-10.81-9.22-5.25c-16.54-9.42-36.22-9.3-52.65.32C9.63,57.58-.11,74.69,0,93.72l.46,76.23c.12,19.04,10.06,36.02,26.6,45.44,8.18,4.66,17.12,6.98,26.06,6.98s18.29-2.43,26.59-7.3l65.78-38.51c1.12-.65,2.2-1.34,3.25-2.06l-20.01-11.55-59.24,34.68c-10.12,5.92-22.24,6-32.43.2-10.19-5.8-16.32-16.26-16.39-27.99l-.46-76.23c-.07-11.73,5.93-22.26,16.05-28.19,5.12-3,10.75-4.5,16.38-4.5s11.02,1.43,16.05,4.3l7.36,4.19,17.72,10.09,41.17,23.44c10.19,5.8,16.32,16.27,16.39,27.99,0,1.53-.09,3.04-.28,4.53l18.39,10.62Z"/>
            </g>
        </g>
    </g>
</svg>
